<svg width="89" height="89" viewBox="0 0 89 89" fill="none" xmlns="http://www.w3.org/2000/svg">
<g clip-path="url(#clip0)">
<path d="M61.7522 52.496V53.496H62.7522H70.5745C71.1972 53.496 71.7633 53.8549 72.0326 54.4239C72.2952 54.9868 72.2102 55.6524 71.809 56.132L71.8077 56.1335L45.7335 87.4226L45.7333 87.4229C45.4294 87.7878 44.9777 87.9999 44.5003 87.9999C44.0228 87.9999 43.571 87.7877 43.2672 87.4229L43.267 87.4227L17.1928 56.1337L17.1916 56.1323C16.7902 55.6524 16.7053 54.9867 16.9681 54.4236C17.2374 53.8547 17.8034 53.496 18.426 53.496H26.2483H27.2483V52.496V2.60729C27.2483 1.95774 27.641 1.37071 28.2386 1.12306C28.8404 0.876195 29.5313 1.01221 29.9928 1.47165C29.9929 1.47183 29.9931 1.47201 29.9933 1.47218L33.3635 4.84219L34.0706 5.54926L34.7777 4.84217L38.1489 1.47095C38.7768 0.843016 39.7938 0.843016 40.4218 1.47095L40.4218 1.47097L43.7932 4.84219L44.5003 5.54926L45.2074 4.84217L48.5786 1.47095C49.2065 0.843016 50.2235 0.843017 50.8514 1.47095L51.5585 0.763844L50.8515 1.47097L54.2229 4.84219L54.93 5.54926L55.6371 4.84217L59.0083 1.47095L59.0094 1.4698C59.4654 1.01237 60.1596 0.87409 60.7608 1.12266L61.1429 0.198555L60.7608 1.12266C61.3591 1.37008 61.7522 1.9574 61.7522 2.60729V52.496Z" fill="url(#paint0_linear)" stroke="#F77408" stroke-width="2"/>
<path d="M52.4263 41.7773C50.2377 41.7773 48.4634 43.5516 48.4634 45.7402C48.4634 47.9288 50.2377 49.7031 52.4263 49.7031C54.6149 49.7031 56.3892 47.9288 56.3892 45.7402C56.3892 43.5516 54.6149 41.7773 52.4263 41.7773ZM36.5747 25.9258C38.7633 25.9258 40.5376 24.1515 40.5376 21.9629C40.5376 19.7743 38.7633 18 36.5747 18C34.3862 18 32.6118 19.7743 32.6118 21.9629C32.6118 24.1515 34.3862 25.9258 36.5747 25.9258ZM54.6244 18.6658C52.8133 17.4584 50.3518 17.9382 49.1289 19.7648L33.2773 43.5421C32.0621 45.3648 32.5574 47.8223 34.3764 49.0376C36.1827 50.2418 38.6436 49.7747 39.8718 47.9386L55.7234 24.1612C56.9387 22.3383 56.4433 19.8808 54.6244 18.6658Z" fill="white"/>
</g>
<defs>
<linearGradient id="paint0_linear" x1="59.2597" y1="93.5516" x2="-11.3032" y2="-9.18538" gradientUnits="userSpaceOnUse">
<stop stop-color="#FE9603"/>
<stop offset="1" stop-color="#FFDDAA"/>
</linearGradient>
<clipPath id="clip0">
<rect width="89" height="89" fill="white"/>
</clipPath>
</defs>
</svg>
