<svg width="92" height="98" viewBox="0 0 92 98" fill="none" xmlns="http://www.w3.org/2000/svg">
<path d="M22.933 85.7484V93.7307H18.0189H16.3809V63.1538H22.933V67.6744V85.7484Z" fill="#DE6807"/>
<path d="M16.3805 93.07V97.0068H0V63.1538H16.3805V93.07Z" fill="url(#paint0_linear)"/>
<path d="M80.5716 51.6727C80.6415 51.6712 80.7105 51.6886 80.7714 51.7229C80.8323 51.7573 80.8828 51.8074 80.9177 51.868C80.9525 51.9286 80.9705 51.9974 80.9696 52.0673C80.9686 52.1372 80.9489 52.2056 80.9125 52.2652L78.3234 56.4777L78.3964 56.5913C77.6451 57.0413 76.9433 57.5691 76.3024 58.1659L62.5775 67.0696H61.8389L68.9813 55.8365C69.964 54.291 71.3626 53.0539 73.0164 52.2672C74.6703 51.4804 76.5124 51.176 78.3315 51.3887L80.5716 51.6727Z" fill="#9D9D9D"/>
<path d="M61.8068 67.0857H62.5454L76.2946 58.1576C76.9355 57.5608 77.6374 57.033 78.3887 56.583C80.3285 55.3737 83.2017 54.1481 86.0343 54.2617C88.4693 54.3916 91.9431 55.6091 91.9999 57.0863C91.9915 57.2901 91.9419 57.4902 91.854 57.6743C91.7661 57.8585 91.6418 58.0229 91.4886 58.1576L71.7251 74.0172C67.0581 76.0381 61.9853 78.0754 56.4905 79.9097C49.7538 82.2148 43.3581 84.0166 37.4493 85.4289H22.9326V67.4266H25.6967L32.1898 61.2175C34.2541 59.2493 36.9996 58.1557 39.8518 58.1657H60.3864C60.3749 60.0432 59.8127 61.876 58.7696 63.437C57.7265 64.998 56.2483 66.2187 54.5182 66.9477V67.2562C56.596 67.1912 59.6072 67.1344 61.8068 67.0857Z" fill="#D6D6D6"/>
<path d="M54.8672 2V10.4411" stroke="#FDECDD" stroke-width="2.4" stroke-miterlimit="10" stroke-linecap="round"/>
<path d="M46.4258 5.896V14.3371" stroke="#FDECDD" stroke-width="2.4" stroke-miterlimit="10" stroke-linecap="round"/>
<path d="M63.958 5.896V14.3371" stroke="#FDECDD" stroke-width="2.4" stroke-miterlimit="10" stroke-linecap="round"/>
<path d="M0 63.1538V66.3475L11.6495 66.8186C12.1226 66.8642 12.5617 67.085 12.8812 67.4378C13.2007 67.7907 13.3776 68.2502 13.3774 68.7268V97.0068H15.2884V63.1538H0Z" fill="#F77408"/>
<path d="M69.8727 33.8162C69.8727 41.9243 63.2998 48.4972 55.1917 48.4972C47.0836 48.4972 40.5107 41.9243 40.5107 33.8162C40.5107 25.7081 47.0836 19.1353 55.1917 19.1353C63.2998 19.1353 69.8727 25.7081 69.8727 33.8162Z" fill="url(#paint1_linear)" stroke="#F77408" stroke-width="2"/>
<path d="M55.2727 33.5894C55.775 33.6518 56.2485 33.8579 56.6365 34.1828C57.0245 34.5078 57.3105 34.9378 57.4602 35.4212C57.6099 35.9047 57.6168 36.4211 57.4803 36.9084C57.3438 37.3957 57.0695 37.8333 56.6905 38.1686C56.3114 38.5039 55.8436 38.7228 55.3433 38.7988C54.8429 38.8749 54.3313 38.805 53.8697 38.5974C53.4081 38.3899 53.0162 38.0536 52.741 37.6288C52.4659 37.2041 52.3191 36.7089 52.3184 36.2029" stroke="white" stroke-width="2.4" stroke-miterlimit="10" stroke-linecap="round"/>
<path d="M58.2594 31.0005C58.167 30.2822 57.8161 29.6222 57.2723 29.144C56.7285 28.6657 56.0292 28.4019 55.305 28.4019C54.5808 28.4019 53.8814 28.6657 53.3377 29.144C52.7939 29.6222 52.443 30.2822 52.3506 31.0005C52.4047 31.7275 52.7403 32.4047 53.2859 32.8882C53.8316 33.3717 54.5443 33.6234 55.2725 33.5896" stroke="white" stroke-width="2.4" stroke-miterlimit="10" stroke-linecap="round"/>
<path d="M55.2725 26.1304V27.7537" stroke="white" stroke-width="2" stroke-miterlimit="10" stroke-linecap="round"/>
<path d="M55.2725 39.9282V40.7399" stroke="white" stroke-width="2" stroke-miterlimit="10" stroke-linecap="round"/>
<defs>
<linearGradient id="paint0_linear" x1="12.4047" y1="98.7381" x2="-16.2384" y2="67.4315" gradientUnits="userSpaceOnUse">
<stop stop-color="#F77408"/>
<stop offset="1" stop-color="#FFDDAA"/>
</linearGradient>
<linearGradient id="paint1_linear" x1="63.2607" y1="51.1011" x2="43.5384" y2="6.55151" gradientUnits="userSpaceOnUse">
<stop stop-color="#FE9603"/>
<stop offset="1" stop-color="#FFDDAA"/>
</linearGradient>
</defs>
</svg>
