<svg width="88" height="88" viewBox="0 0 88 88" fill="none" xmlns="http://www.w3.org/2000/svg">
<path d="M80.1566 10.9048L80.1565 10.9048L44.7878 1.06869L44.7876 1.06864C44.4589 0.97714 44.1116 0.977085 43.7823 1.06869L43.5144 0.105499L43.7822 1.06869L8.41352 10.9048L8.41341 10.9048C7.69394 11.1048 7.16131 11.7131 7.05819 12.4537L80.1566 10.9048ZM80.1566 10.9048C80.876 11.1048 81.4088 11.7135 81.5119 12.4539C81.611 13.167 82.8244 22.1875 82.5217 33.1734C82.2176 44.2111 80.3859 57.0009 74.5615 65.4137L75.3837 65.9829M80.1566 10.9048L75.3837 65.9829M75.3837 65.9829L74.5615 65.4137C62.7909 82.416 45.4153 86.7803 44.7268 86.9469C44.5809 86.982 44.433 86.9994 44.285 86.9994C44.136 86.9994 43.9887 86.9821 43.8448 86.9473C43.1801 86.7866 25.788 82.4282 14.0085 65.4137C8.18409 57.0007 6.35242 44.2108 6.04834 33.1731M75.3837 65.9829L6.04834 33.1731M6.04834 33.1731C5.74567 22.1868 6.95913 13.166 7.05817 12.4538L6.04834 33.1731Z" fill="url(#paint0_linear)" stroke="#F77408" stroke-width="2"/>
<path d="M65.9505 32.8713L41.8255 56.9963C41.2641 57.5577 40.5279 57.8388 39.7921 57.8388C39.0563 57.8388 38.3201 57.5581 37.7587 56.9963L22.8424 42.0801C22.3029 41.5409 22 40.8093 22 40.0467C22 39.284 22.3033 38.5524 22.8424 38.0133L25.8041 35.0516C26.9272 33.9288 28.7482 33.9285 29.8709 35.0516L39.7921 44.9727L58.922 25.8424C59.4612 25.3029 60.1928 25 60.9554 25C61.7181 25 62.4497 25.3029 62.9888 25.8424L65.9505 28.8041C67.0736 29.9272 67.0736 31.7482 65.9505 32.8713Z" fill="white"/>
<defs>
<linearGradient id="paint0_linear" x1="64.5" y1="92.5" x2="5" y2="-27.5" gradientUnits="userSpaceOnUse">
<stop stop-color="#FE9603"/>
<stop offset="1" stop-color="#FFDDAA"/>
</linearGradient>
</defs>
</svg>
