<svg width="89" height="89" viewBox="0 0 89 89" fill="none" xmlns="http://www.w3.org/2000/svg">
<path d="M80.1275 40.3205H60.3416C55.4688 40.3205 51.5059 44.2831 51.5059 49.156V62.1688C51.5059 67.0417 55.4688 71.0043 60.3415 71.0045H80.1275V82.9579C80.1275 85.7426 77.8702 87.9998 75.0858 87.9998H11.0416C8.25699 87.9998 5.99971 85.7424 5.99971 82.9579V28.3667C5.99971 25.5823 8.25694 23.325 11.0416 23.3252H11.0416H75.0858C77.8703 23.3252 80.1275 25.5824 80.1275 28.3669V40.3205Z" fill="url(#paint0_linear)" stroke="#F77408" stroke-width="2"/>
<path d="M60.3419 46.6138H80.759C82.1629 46.6138 83.301 47.7518 83.301 49.1558V62.1686C83.301 63.5727 82.1629 64.7107 80.759 64.7107H60.3419C58.938 64.7107 57.7998 63.5725 57.7998 62.1686V49.1558C57.7998 47.752 58.938 46.6138 60.3419 46.6138ZM61.2648 55.662C61.2648 59.0379 64.0014 61.7744 67.3772 61.7744C70.7531 61.7744 73.4897 59.0379 73.4897 55.662C73.4897 52.2862 70.7531 49.5496 67.3772 49.5496C64.0014 49.5496 61.2648 52.2862 61.2648 55.662Z" fill="url(#paint1_linear)" stroke="#F77408" stroke-width="2"/>
<rect x="8.2959" y="2" width="13.7333" height="11.536" rx="5" fill="#FE9603"/>
<rect x="26.4238" y="2" width="14.2827" height="11.536" rx="5" fill="#FE9603"/>
<rect x="45.1016" y="2" width="14.2827" height="11.536" rx="5" fill="#FE9603"/>
<rect x="63.7783" y="2" width="13.7333" height="11.536" rx="5" fill="#FE9603"/>
<defs>
<linearGradient id="paint0_linear" x1="62.6503" y1="92.4098" x2="24.4704" y2="-6.06006" gradientUnits="userSpaceOnUse">
<stop stop-color="#FE9603"/>
<stop offset="1" stop-color="#FFDDAA"/>
</linearGradient>
<linearGradient id="paint1_linear" x1="77.6261" y1="66.7385" x2="67.6271" y2="35.8307" gradientUnits="userSpaceOnUse">
<stop stop-color="#FE9603"/>
<stop offset="1" stop-color="#FFDDAA"/>
</linearGradient>
</defs>
</svg>
